<svg width="488" height="112" fill="none" xmlns="http://www.w3.org/2000/svg">
  <path d="M190.24 106.33h-2.85V84.09H179V81.5h19.63v2.59h-8.39v22.24zm84.89-24.83h2.75v24.83h-2.25L259.5 85.97v20.36h-2.75V81.5h2.64l15.74 19.9V81.5zM35.35 106.36h-3l-2.93-6.56H15.79l-3 6.56H9.94l11.39-25H24l11.35 25zM22.61 84.58L16.9 97.24h11.39l-5.68-12.66zm284.11 21.75h-2.85V84.09h-8.39V81.5h19.63v2.59h-8.39v22.24zM61.56 92.56c5.57 1.21 8.14 3.23 8.14 7.06 0 4.29-3.57 7.06-8.53 7.06a14.678 14.678 0 01-10.21-4l1.75-2.06a11.931 11.931 0 008.57 3.51c3.36 0 5.57-1.74 5.57-4.26 0-2.34-1.25-3.65-6.5-4.75C54.6 93.88 52 92 52 87.92s3.46-6.81 8.21-6.81a13.09 13.09 0 018.78 3l-1.65 2.2a11 11 0 00-7.21-2.7c-3.25 0-5.32 1.77-5.32 4s1.29 3.69 6.78 4.86m35.13.09c5.57 1.21 8.14 3.23 8.14 7.06 0 4.29-3.57 7.06-8.53 7.06a14.678 14.678 0 01-10.21-4l1.75-2.06a11.996 11.996 0 008.6 3.54c3.36 0 5.57-1.74 5.57-4.26 0-2.34-1.25-3.65-6.5-4.75-5.74-1.24-8.39-3.09-8.39-7.2s3.46-6.81 8.21-6.81a13.09 13.09 0 018.78 3l-1.67 2.17a11 11 0 00-7.21-2.7c-3.25 0-5.32 1.77-5.32 4s1.29 3.69 6.78 4.86m29.27-10.97h-2.82v24.83h2.82V81.5zm28.59 11.06c5.57 1.21 8.14 3.23 8.14 7.06 0 4.29-3.57 7.06-8.53 7.06a14.679 14.679 0 01-10.21-4l1.75-2.06a11.926 11.926 0 008.57 3.51c3.36 0 5.57-1.74 5.57-4.26 0-2.34-1.25-3.65-6.5-4.75-5.74-1.24-8.37-3.12-8.37-7.2s3.46-6.81 8.21-6.81a13.089 13.089 0 018.78 3l-1.64 2.2c-2-1.74-4.56-2.698-7.21-2.7-3.25 0-5.32 1.77-5.32 4s1.29 3.69 6.78 4.86m84.87 13.89h-3l-2.93-6.56h-13.6l-3 6.56h-2.89l11.42-25h2.64l11.36 25zm-12.74-21.75L221 97.27h11.45l-5.72-12.66z" fill="#565656"/>
  <path d="M39.05 67.7c-18.4 0-31-12.83-31-30.19v-.15C8 20.67 21.08 7 39 7c10.63 0 17 2.85 23.2 8.05L54 24.86c-4.56-3.77-8.61-6-15.44-6-9.45 0-17 8.3-17 18.28v.22C21.57 48.1 29 56 39.46 56c4.344.13 8.62-1.1 12.23-3.52v-8.41H38.63V32.89h25.65v25.47a38.47 38.47 0 01-25.23 9.31m51.3-59.69h-13v58.71h13V7.98zm45.05 59.13h-11.47L100.05 7.98h14.34l15.44 41.35 15.44-41.35h14.01L135.4 67.11zm46.57-59.13h-12.99v58.71h12.99V7.98zm56.2 58.71l-28.61-37.32v37.32h-12.82V7.98h11.98l27.68 36.15V7.98h12.82v58.71h-11.05zm53.66 1.01c-18.4 0-31-12.83-31-30.19v-.15c0-16.69 13.08-30.36 31-30.36 10.63 0 17 2.85 23.2 8.05l-8.18 9.81c-4.56-3.77-8.61-6-15.44-6-9.45 0-17 8.3-17 18.28v.22c0 10.74 7.43 18.62 17.89 18.62a20.83 20.83 0 0012.22-3.55V44H291.4V32.89h25.65v25.47a38.47 38.47 0 01-25.23 9.31m131.01 21.61c-9.75 2.9-29.17-7.19-39.59-13.82-1.06-.68-2-1.32-2.88-1.9-33.61-23.08-11.49-64.45 24.37-45 19.4-35.86 60.55-13.33 45 24.37-4.27 10.37-16.21 33.2-26.95 36.4l.05-.05z" fill="#EF6561"/>
  <path d="M477.13 58.53a.944.944 0 00-.1-.1c-3.34-3-7.29-3.6-14.54 3.65.25-2.15-.26-5.3-1.78-7.06a9 9 0 00-11.25-1.37c-4.52 10.68-16.14 32.5-26.63 35.63-9.75 2.9-29.17-7.19-39.59-13.82h25.31a8.203 8.203 0 007.834-4.991 8.185 8.185 0 000-6.408 8.196 8.196 0 00-7.834-4.991h-53.94v29.64c0 4.29 39.52 18 63.1 18 25 0 56.22-33.09 59.65-36.87a8 8 0 00-.23-11.31z" fill="#F6C89D"/>
</svg>
